<svg width="139" height="184" viewBox="0 0 139 184" fill="none" xmlns="http://www.w3.org/2000/svg">
<path d="M124.147 0.507238C123.323 0.425956 122.589 1.0284 122.507 1.85283L121.183 15.2877C121.101 16.1121 121.704 16.8463 122.528 16.9276C123.353 17.0089 124.087 16.4065 124.168 15.582L125.346 3.63994L137.288 4.81733C138.112 4.89861 138.846 4.29617 138.928 3.47174C139.009 2.64731 138.407 1.91308 137.582 1.8318L124.147 0.507238ZM73.5 72L73.3261 70.5101L73.2632 70.5175L73.2011 70.5301L73.5 72ZM18.2712 183.482C19.0899 183.609 19.8561 183.048 19.9825 182.229L22.042 168.887C22.1684 168.068 21.6071 167.302 20.7884 167.176C19.9696 167.049 19.2035 167.61 19.0771 168.429L17.2464 180.289L5.38689 178.458C4.56816 178.332 3.80199 178.893 3.67561 179.712C3.54923 180.53 4.11049 181.297 4.92922 181.423L18.2712 183.482ZM19.7101 181.114C19.5217 180.856 19.3335 180.596 19.1455 180.334L16.7057 182.079C16.9002 182.351 17.0949 182.62 17.29 182.886L19.7101 181.114ZM16.9408 177.104C16.5856 176.559 16.2327 176.005 15.8826 175.441L13.3347 177.025C13.696 177.607 14.0604 178.179 14.4272 178.742L16.9408 177.104ZM13.8876 172.078C13.5695 171.516 13.2551 170.946 12.9448 170.37L10.3036 171.793C10.6237 172.387 10.9481 172.975 11.2762 173.555L13.8876 172.078ZM11.1597 166.885C10.8754 166.3 10.5959 165.709 10.3217 165.113L7.59632 166.367C7.87948 166.982 8.16803 167.592 8.46151 168.196L11.1597 166.885ZM8.76352 161.525C8.51785 160.923 8.27809 160.318 8.04466 159.708L5.24285 160.78C5.48437 161.411 5.73235 162.038 5.98636 162.659L8.76352 161.525ZM6.73202 156.027C6.52801 155.41 6.33101 154.789 6.14141 154.165L3.27104 155.037C3.46777 155.685 3.67208 156.328 3.88354 156.968L6.73202 156.027ZM5.10048 150.405C4.94329 149.775 4.79417 149.143 4.6535 148.509L1.72462 149.158C1.87111 149.819 2.0263 150.477 2.18978 151.132L5.10048 150.405ZM3.91541 144.686C3.81044 144.046 3.71464 143.405 3.62837 142.762L0.655041 143.161C0.745256 143.833 0.845385 144.503 0.955004 145.172L3.91541 144.686ZM3.22879 138.899C3.18229 138.254 3.14603 137.608 3.12037 136.962L0.122733 137.081C0.149692 137.76 0.187774 138.438 0.236555 139.114L3.22879 138.899ZM3.0965 133.088C3.11462 132.443 3.144 131.799 3.18501 131.154L0.191068 130.964C0.147769 131.644 0.116782 132.324 0.0976866 133.004L3.0965 133.088ZM3.57158 127.309C3.65952 126.673 3.75958 126.038 3.87211 125.404L0.918293 124.88C0.798987 125.552 0.692981 126.224 0.599869 126.898L3.57158 127.309ZM4.69414 121.637C4.85589 121.015 5.03056 120.394 5.21849 119.775L2.34792 118.904C2.14816 119.561 1.96255 120.221 1.79073 120.882L4.69414 121.637ZM6.48726 116.136C6.72086 115.545 6.96754 114.956 7.22764 114.369L4.48471 113.154C4.20806 113.778 3.94567 114.405 3.69718 115.034L6.48726 116.136ZM8.92994 110.913C9.23561 110.351 9.55461 109.792 9.88725 109.235L7.31159 107.697C6.95837 108.288 6.6195 108.882 6.29466 109.48L8.92994 110.913ZM11.9905 106.008C12.3613 105.484 12.7452 104.963 13.1425 104.445L10.762 102.619C10.3417 103.168 9.93523 103.719 9.54241 104.273L11.9905 106.008ZM15.6093 101.462C16.0297 100.989 16.4622 100.519 16.9071 100.052L14.7349 97.9831C14.2665 98.4748 13.8108 98.97 13.3676 99.4684L15.6093 101.462ZM19.6818 97.3275C20.1487 96.8979 20.627 96.4711 21.1171 96.0473L19.1545 93.7783C18.6415 94.222 18.1402 94.6692 17.6505 95.1198L19.6818 97.3275ZM24.1364 93.5884C24.6438 93.199 25.162 92.8124 25.6912 92.4288L23.9303 89.9999C23.3792 90.3994 22.8391 90.8024 22.3099 91.2086L24.1364 93.5884ZM28.9068 90.2231C29.446 89.873 29.9953 89.5257 30.5547 89.1812L28.9819 86.6266C28.4022 86.9835 27.8326 87.3436 27.273 87.707L28.9068 90.2231ZM33.9287 87.2088C34.4916 86.8963 35.0637 86.5865 35.6452 86.2795L34.2444 83.6266C33.6446 83.9433 33.054 84.2631 32.4725 84.586L33.9287 87.2088ZM39.152 84.5169C39.7313 84.2397 40.319 83.9651 40.9151 83.6932L39.6702 80.9637C39.0575 81.2431 38.4532 81.5255 37.8571 81.8107L39.152 84.5169ZM44.5405 82.1165C45.13 81.8721 45.7271 81.6301 46.3319 81.3906L45.2273 78.6013C44.6079 78.8466 43.996 79.0946 43.3915 79.3452L44.5405 82.1165ZM50.0527 79.9842C50.6534 79.7676 51.261 79.5533 51.8756 79.3413L50.8977 76.5052C50.2699 76.7217 49.649 76.9407 49.0349 77.1621L50.0527 79.9842ZM55.6086 78.1111C56.2444 77.9109 56.8873 77.7132 57.5372 77.5179L56.6737 74.6448C56.0115 74.8438 55.3561 75.0454 54.7077 75.2496L55.6086 78.1111ZM61.2594 76.4477C61.8922 76.2737 62.5314 76.102 63.1768 75.9325L62.4149 73.0309C61.7584 73.2032 61.1083 73.378 60.4642 73.555L61.2594 76.4477ZM67.0093 74.9708C67.6361 74.8206 68.2686 74.6725 68.9067 74.5264L68.2372 71.6021C67.5893 71.7504 66.947 71.9008 66.3102 72.0534L67.0093 74.9708ZM72.8035 73.6749C73.1339 73.606 73.4657 73.5377 73.799 73.4699L73.2011 70.5301C72.8631 70.5988 72.5266 70.6681 72.1915 70.738L72.8035 73.6749ZM73.674 73.4899C74.0178 73.4497 74.36 73.409 74.7004 73.3676L74.3386 70.3895C74.0028 70.4303 73.6653 70.4705 73.3261 70.5101L73.674 73.4899ZM78.7052 72.8425C79.3593 72.7502 80.0067 72.6556 80.6476 72.5586L80.1988 69.5924C79.568 69.6878 78.9304 69.781 78.2861 69.8719L78.7052 72.8425ZM84.6668 71.9054C85.3241 71.7909 85.974 71.6739 86.6166 71.5543L86.0675 68.6049C85.4366 68.7224 84.7981 68.8374 84.1521 68.9499L84.6668 71.9054ZM90.5923 70.7621C91.2493 70.6223 91.8979 70.4796 92.5383 70.3341L91.8738 67.4086C91.2468 67.551 90.6115 67.6908 89.9677 67.8279L90.5923 70.7621ZM96.475 69.3784C97.1268 69.2095 97.7693 69.0375 98.4026 68.8625L97.6035 65.9709C96.986 66.1416 96.3591 66.3094 95.7227 66.4743L96.475 69.3784ZM102.296 67.7122C102.937 67.5102 103.567 67.3049 104.186 67.0962L103.229 64.253C102.628 64.4555 102.016 64.6549 101.394 64.8512L102.296 67.7122ZM108.021 65.7132C108.655 65.4685 109.277 65.22 109.887 64.9677L108.741 62.1954C108.153 62.4384 107.553 62.6782 106.941 62.9145L108.021 65.7132ZM113.591 63.3223C114.225 63.0198 114.844 62.7128 115.449 62.4015L114.076 59.7341C113.499 60.0314 112.907 60.3249 112.299 60.6147L113.591 63.3223ZM119.016 60.4163C119.606 60.0614 120.179 59.7017 120.736 59.3373L119.095 56.8261C118.569 57.1698 118.027 57.5099 117.469 57.8462L119.016 60.4163ZM124.079 56.9528C124.636 56.5179 125.174 56.0776 125.692 55.632L123.736 53.357C123.255 53.771 122.754 54.1814 122.233 54.5876L124.079 56.9528ZM128.687 52.7784C129.169 52.2669 129.629 51.7498 130.068 51.2277L127.77 49.2992C127.369 49.7764 126.948 50.2502 126.504 50.7203L128.687 52.7784ZM132.547 47.8696C132.929 47.2763 133.286 46.6782 133.619 46.0758L130.993 44.6256C130.693 45.1687 130.37 45.709 130.025 46.2458L132.547 47.8696ZM135.385 42.2712C135.636 41.6118 135.862 40.9492 136.062 40.2843L133.189 39.419C133.009 40.0162 132.807 40.6111 132.582 41.2034L135.385 42.2712ZM136.985 36.1957C137.091 35.5025 137.173 34.8087 137.232 34.1151L134.243 33.861C134.19 34.4888 134.115 35.1155 134.02 35.7406L136.985 36.1957ZM137.318 29.9425C137.289 29.2484 137.239 28.556 137.17 27.8662L134.185 28.1666C134.249 28.7998 134.294 29.4337 134.321 30.0677L137.318 29.9425ZM136.53 23.7693C136.388 23.0945 136.229 22.4236 136.054 21.7572L133.152 22.5186C133.315 23.139 133.462 23.7622 133.594 24.3877L136.53 23.7693ZM134.827 17.8226C134.594 17.1768 134.347 16.5368 134.089 15.9033L131.311 17.0369C131.555 17.6333 131.786 18.2348 132.005 18.8408L134.827 17.8226ZM132.393 12.169C132.086 11.5554 131.768 10.9497 131.442 10.3527L128.809 11.7912C129.119 12.3573 129.419 12.931 129.71 13.5117L132.393 12.169ZM129.358 6.83355C128.988 6.25563 128.611 5.68833 128.229 5.13246L125.757 6.83247C126.121 7.36107 126.479 7.90044 126.83 8.44977L129.358 6.83355ZM125.795 1.83714C125.584 1.57065 125.372 1.30774 125.16 1.04853L122.84 2.95147C123.042 3.19744 123.244 3.44702 123.444 3.70011L125.795 1.83714Z" fill="#FFFDFD"/>
</svg>
